<svg xmlns="http://www.w3.org/2000/svg" xmlns:xlink="http://www.w3.org/1999/xlink" width="1920" zoomAndPan="magnify" viewBox="0 0 1440 809.999993" height="1080" preserveAspectRatio="xMidYMid meet" version="1.0"><defs><clipPath id="9cca8c85ac"><path d="M 590.398438 243 L 849.898438 243 L 849.898438 567 L 590.398438 567 Z M 590.398438 243 " clip-rule="nonzero"/></clipPath></defs><path fill="#000000" d="M 647.128906 356.402344 L 728.21875 356.402344 C 732.695312 356.402344 736.328125 352.773438 736.328125 348.304688 C 736.328125 343.832031 732.695312 340.207031 728.21875 340.207031 L 647.128906 340.207031 C 642.65625 340.207031 639.023438 343.832031 639.023438 348.304688 C 639.023438 352.773438 642.65625 356.402344 647.128906 356.402344 Z M 647.128906 356.402344 " fill-opacity="1" fill-rule="nonzero"/><path fill="#000000" d="M 793.089844 388.800781 L 647.128906 388.800781 C 642.65625 388.800781 639.023438 392.429688 639.023438 396.902344 C 639.023438 401.371094 642.65625 405 647.128906 405 L 793.089844 405 C 797.566406 405 801.199219 401.371094 801.199219 396.902344 C 801.199219 392.429688 797.566406 388.800781 793.089844 388.800781 Z M 793.089844 388.800781 " fill-opacity="1" fill-rule="nonzero"/><path fill="#000000" d="M 793.089844 437.398438 L 647.128906 437.398438 C 642.65625 437.398438 639.023438 441.027344 639.023438 445.496094 C 639.023438 449.96875 642.65625 453.597656 647.128906 453.597656 L 793.089844 453.597656 C 797.566406 453.597656 801.199219 449.96875 801.199219 445.496094 C 801.199219 441.027344 797.566406 437.398438 793.089844 437.398438 Z M 793.089844 437.398438 " fill-opacity="1" fill-rule="nonzero"/><path fill="#000000" d="M 793.089844 485.992188 L 647.128906 485.992188 C 642.65625 485.992188 639.023438 489.621094 639.023438 494.09375 C 639.023438 498.5625 642.65625 502.191406 647.128906 502.191406 L 793.089844 502.191406 C 797.566406 502.191406 801.199219 498.5625 801.199219 494.09375 C 801.199219 489.621094 797.566406 485.992188 793.089844 485.992188 Z M 793.089844 485.992188 " fill-opacity="1" fill-rule="nonzero"/><g clip-path="url(#9cca8c85ac)"><path fill="#000000" d="M 849.21875 312.796875 C 848.816406 311.792969 848.214844 310.917969 847.46875 310.171875 L 782.613281 245.410156 C 781.867188 244.664062 780.976562 244.066406 779.988281 243.660156 C 779.011719 243.238281 777.960938 243.011719 776.871094 243.011719 L 598.476562 243.011719 C 594 243.011719 590.367188 246.640625 590.367188 251.113281 L 590.367188 558.886719 C 590.367188 563.359375 594 566.988281 598.476562 566.988281 L 841.742188 566.988281 C 846.21875 566.988281 849.851562 563.359375 849.851562 558.886719 L 849.851562 315.90625 C 849.851562 314.839844 849.625 313.769531 849.21875 312.796875 Z M 784.980469 270.664062 L 822.167969 307.808594 L 784.980469 307.808594 Z M 606.585938 550.789062 L 606.585938 259.210938 L 768.765625 259.210938 L 768.765625 315.90625 C 768.765625 320.378906 772.394531 324.007812 776.871094 324.007812 L 833.632812 324.007812 L 833.632812 550.789062 Z M 606.585938 550.789062 " fill-opacity="1" fill-rule="nonzero"/></g></svg>