<svg xmlns="http://www.w3.org/2000/svg" xmlns:xlink="http://www.w3.org/1999/xlink" width="1920" zoomAndPan="magnify" viewBox="0 0 1440 809.999993" height="1080" preserveAspectRatio="xMidYMid meet" version="1.0"><defs><clipPath id="a4a75d57ea"><path d="M 600.121094 243 L 840 243 L 840 567 L 600.121094 567 Z M 600.121094 243 " clip-rule="nonzero"/></clipPath></defs><g clip-path="url(#a4a75d57ea)"><path fill="#000000" d="M 810.34375 376.054688 L 810.34375 333.140625 C 810.34375 283.371094 769.8125 242.882812 719.992188 242.882812 C 670.171875 242.882812 629.644531 283.371094 629.644531 333.140625 L 629.644531 376.054688 C 612.757812 381.03125 600.382812 396.640625 600.382812 415.097656 L 600.382812 526.140625 C 600.382812 548.597656 618.671875 566.863281 641.148438 566.863281 L 798.835938 566.863281 C 821.3125 566.863281 839.601562 548.597656 839.601562 526.140625 L 839.601562 415.097656 C 839.601562 396.636719 827.230469 381.03125 810.34375 376.054688 Z M 719.992188 263.246094 C 758.574219 263.246094 789.960938 294.597656 789.960938 333.140625 L 789.960938 374.375 L 650.027344 374.375 L 650.027344 333.140625 C 650.027344 294.597656 681.410156 263.246094 719.992188 263.246094 Z M 819.21875 526.140625 C 819.21875 537.367188 810.074219 546.5 798.835938 546.5 L 641.148438 546.5 C 629.910156 546.5 620.765625 537.367188 620.765625 526.140625 L 620.765625 415.097656 C 620.765625 405.84375 626.980469 398.027344 635.453125 395.558594 L 804.527344 395.558594 C 813 398.027344 819.214844 405.84375 819.214844 415.097656 L 819.214844 526.140625 Z M 819.21875 526.140625 " fill-opacity="1" fill-rule="nonzero"/></g><path fill="#000000" d="M 741.234375 460.199219 C 741.234375 448.480469 731.726562 438.976562 719.992188 438.976562 C 708.261719 438.976562 698.75 448.480469 698.75 460.199219 C 698.75 468.230469 703.214844 475.214844 709.800781 478.820312 L 709.800781 498.632812 C 709.800781 504.253906 714.363281 508.8125 719.992188 508.8125 C 725.621094 508.8125 730.183594 504.253906 730.183594 498.632812 L 730.183594 478.820312 C 736.769531 475.214844 741.234375 468.230469 741.234375 460.199219 Z M 741.234375 460.199219 " fill-opacity="1" fill-rule="nonzero"/></svg>