<svg xmlns="http://www.w3.org/2000/svg" xmlns:xlink="http://www.w3.org/1999/xlink" width="1920" zoomAndPan="magnify" viewBox="0 0 1440 809.999993" height="1080" preserveAspectRatio="xMidYMid meet" version="1.0"><defs><clipPath id="b800b307cb"><path d="M 594.449219 243 L 845.699219 243 L 845.699219 567 L 594.449219 567 Z M 594.449219 243 " clip-rule="nonzero"/></clipPath></defs><g clip-path="url(#b800b307cb)"><path fill="#000000" d="M 818.769531 368.207031 L 818.769531 341.625 C 818.769531 287.253906 774.488281 243 720.082031 243 C 665.679688 243 621.378906 287.242188 621.378906 341.625 L 621.378906 368.207031 C 606.480469 368.609375 594.511719 380.742188 594.511719 395.730469 L 594.511719 539.398438 C 594.511719 540.304688 594.554688 541.207031 594.644531 542.105469 C 594.730469 543.003906 594.863281 543.898438 595.039062 544.785156 C 595.214844 545.671875 595.4375 546.546875 595.699219 547.410156 C 595.960938 548.277344 596.265625 549.125 596.609375 549.960938 C 596.957031 550.796875 597.34375 551.613281 597.769531 552.410156 C 598.195312 553.207031 598.660156 553.980469 599.164062 554.734375 C 599.664062 555.484375 600.203125 556.210938 600.777344 556.910156 C 601.351562 557.605469 601.957031 558.277344 602.597656 558.914062 C 603.234375 559.554688 603.90625 560.160156 604.605469 560.734375 C 605.304688 561.308594 606.027344 561.84375 606.78125 562.347656 C 607.53125 562.851562 608.308594 563.3125 609.105469 563.738281 C 609.902344 564.167969 610.71875 564.550781 611.554688 564.898438 C 612.390625 565.246094 613.242188 565.546875 614.105469 565.8125 C 614.972656 566.074219 615.847656 566.292969 616.734375 566.46875 C 617.621094 566.644531 618.515625 566.777344 619.414062 566.867188 C 620.316406 566.957031 621.21875 567 622.121094 567 L 818.03125 567 C 818.933594 567 819.835938 566.957031 820.738281 566.867188 C 821.636719 566.777344 822.53125 566.644531 823.417969 566.46875 C 824.304688 566.292969 825.179688 566.074219 826.046875 565.8125 C 826.910156 565.550781 827.761719 565.246094 828.597656 564.898438 C 829.433594 564.554688 830.25 564.167969 831.046875 563.742188 C 831.84375 563.316406 832.621094 562.851562 833.371094 562.347656 C 834.125 561.847656 834.851562 561.308594 835.546875 560.734375 C 836.246094 560.164062 836.917969 559.554688 837.558594 558.917969 C 838.195312 558.277344 838.804688 557.609375 839.378906 556.910156 C 839.949219 556.210938 840.488281 555.488281 840.992188 554.734375 C 841.492188 553.984375 841.957031 553.207031 842.386719 552.410156 C 842.8125 551.613281 843.199219 550.796875 843.542969 549.964844 C 843.890625 549.128906 844.195312 548.277344 844.457031 547.414062 C 844.71875 546.546875 844.9375 545.671875 845.117188 544.785156 C 845.292969 543.898438 845.425781 543.007812 845.511719 542.105469 C 845.601562 541.207031 845.644531 540.304688 845.648438 539.402344 L 845.648438 395.730469 C 845.648438 380.738281 833.667969 368.605469 818.769531 368.207031 Z M 742.667969 447.710938 C 742.542969 448.566406 742.0625 450.519531 742.019531 450.667969 C 740.332031 456.503906 736.304688 461.300781 731.070312 464.214844 L 739.9375 501.984375 C 740.066406 502.375 740.148438 502.773438 740.183594 503.183594 C 740.21875 503.59375 740.203125 504 740.144531 504.40625 C 740.082031 504.8125 739.976562 505.203125 739.824219 505.585938 C 739.671875 505.964844 739.476562 506.324219 739.238281 506.660156 C 739 506.996094 738.730469 507.296875 738.421875 507.570312 C 738.113281 507.839844 737.777344 508.074219 737.414062 508.265625 C 737.054688 508.457031 736.671875 508.605469 736.277344 508.710938 C 735.878906 508.816406 735.476562 508.871094 735.066406 508.878906 L 705.691406 508.878906 C 705.28125 508.871094 704.878906 508.816406 704.480469 508.710938 C 704.082031 508.605469 703.703125 508.457031 703.339844 508.265625 C 702.976562 508.074219 702.644531 507.839844 702.335938 507.570312 C 702.027344 507.296875 701.753906 506.996094 701.519531 506.660156 C 701.28125 506.324219 701.085938 505.964844 700.933594 505.585938 C 700.78125 505.203125 700.675781 504.8125 700.613281 504.40625 C 700.554688 504 700.539062 503.59375 700.574219 503.183594 C 700.609375 502.773438 700.691406 502.375 700.820312 501.984375 L 709.085938 464.214844 C 703.847656 461.300781 699.820312 456.503906 698.136719 450.667969 C 698.09375 450.519531 697.609375 448.566406 697.488281 447.710938 C 697.332031 446.65625 697.253906 445.597656 697.253906 444.53125 C 697.253906 443.785156 697.289062 443.039062 697.363281 442.292969 C 697.4375 441.550781 697.546875 440.8125 697.691406 440.078125 C 697.835938 439.347656 698.019531 438.621094 698.234375 437.90625 C 698.453125 437.191406 698.703125 436.488281 698.988281 435.800781 C 699.273438 435.109375 699.59375 434.433594 699.945312 433.773438 C 700.296875 433.117188 700.683594 432.476562 701.097656 431.855469 C 701.511719 431.234375 701.957031 430.632812 702.429688 430.054688 C 702.90625 429.476562 703.40625 428.925781 703.9375 428.394531 C 704.464844 427.867188 705.015625 427.367188 705.59375 426.890625 C 706.171875 426.417969 706.773438 425.972656 707.394531 425.558594 C 708.015625 425.144531 708.65625 424.757812 709.316406 424.40625 C 709.976562 424.054688 710.648438 423.734375 711.339844 423.449219 C 712.03125 423.164062 712.734375 422.914062 713.449219 422.695312 C 714.164062 422.476562 714.890625 422.296875 715.625 422.152344 C 716.355469 422.003906 717.09375 421.894531 717.839844 421.824219 C 718.582031 421.75 719.328125 421.710938 720.078125 421.710938 C 720.824219 421.710938 721.570312 421.75 722.316406 421.824219 C 723.058594 421.894531 723.796875 422.003906 724.53125 422.152344 C 725.265625 422.296875 725.988281 422.476562 726.703125 422.695312 C 727.417969 422.914062 728.121094 423.164062 728.8125 423.449219 C 729.503906 423.734375 730.179688 424.054688 730.839844 424.40625 C 731.496094 424.757812 732.136719 425.144531 732.761719 425.558594 C 733.382812 425.972656 733.980469 426.417969 734.558594 426.890625 C 735.136719 427.367188 735.691406 427.867188 736.21875 428.394531 C 736.746094 428.925781 737.25 429.476562 737.722656 430.054688 C 738.195312 430.632812 738.640625 431.234375 739.058594 431.855469 C 739.472656 432.476562 739.855469 433.117188 740.207031 433.773438 C 740.558594 434.433594 740.878906 435.109375 741.164062 435.800781 C 741.453125 436.488281 741.703125 437.191406 741.917969 437.90625 C 742.136719 438.621094 742.316406 439.347656 742.464844 440.078125 C 742.609375 440.8125 742.71875 441.550781 742.792969 442.292969 C 742.863281 443.039062 742.902344 443.785156 742.898438 444.53125 C 742.898438 445.597656 742.820312 446.65625 742.667969 447.710938 Z M 785.070312 368.132812 L 655.078125 368.132812 L 655.078125 341.625 C 655.078125 305.800781 684.226562 276.660156 720.082031 276.660156 C 755.941406 276.660156 785.070312 305.800781 785.070312 341.625 Z M 785.070312 368.132812 " fill-opacity="1" fill-rule="nonzero"/></g></svg>