<svg xmlns="http://www.w3.org/2000/svg" xmlns:xlink="http://www.w3.org/1999/xlink" width="1920" zoomAndPan="magnify" viewBox="0 0 1440 809.999993" height="1080" preserveAspectRatio="xMidYMid meet" version="1.0"><path fill="#000000" d="M 873.203125 527.140625 L 783.679688 437.617188 L 775.546875 445.753906 L 756.621094 426.824219 C 772.601562 407.449219 782.214844 382.632812 782.214844 355.613281 C 782.214844 293.800781 731.921875 243.511719 670.109375 243.511719 C 608.292969 243.511719 558.007812 293.804688 558.007812 355.613281 C 558.007812 417.429688 608.292969 467.710938 670.109375 467.710938 C 696.640625 467.710938 721.03125 458.429688 740.242188 442.96875 L 759.292969 462.015625 L 751.160156 470.144531 L 840.679688 559.667969 C 845.167969 564.15625 851.058594 566.402344 856.941406 566.402344 C 862.824219 566.402344 868.707031 564.15625 873.199219 559.667969 C 882.183594 550.679688 882.183594 536.121094 873.203125 527.140625 Z M 581.007812 355.609375 C 581.007812 306.480469 620.976562 266.503906 670.109375 266.503906 C 719.242188 266.503906 759.214844 306.480469 759.214844 355.609375 C 759.214844 404.742188 719.242188 444.710938 670.109375 444.710938 C 620.976562 444.710938 581.007812 404.746094 581.007812 355.609375 Z M 581.007812 355.609375 " fill-opacity="1" fill-rule="nonzero"/><path fill="#000000" d="M 711.542969 313.921875 C 732.996094 335.371094 742.617188 363.457031 739.585938 388.34375 C 743.585938 378.964844 745.796875 368.644531 745.796875 357.808594 C 745.796875 314.785156 710.921875 279.914062 667.902344 279.914062 C 657.449219 279.914062 647.484375 281.988281 638.375 285.71875 C 662.945312 283.152344 690.457031 292.835938 711.542969 313.921875 Z M 711.542969 313.921875 " fill-opacity="1" fill-rule="nonzero"/></svg>