<svg xmlns="http://www.w3.org/2000/svg" xmlns:xlink="http://www.w3.org/1999/xlink" width="1920" zoomAndPan="magnify" viewBox="0 0 1440 809.999993" height="1080" preserveAspectRatio="xMidYMid meet" version="1.0"><defs><clipPath id="5b11fff995"><path d="M 558.609375 244 L 880 244 L 880 567 L 558.609375 567 Z M 558.609375 244 " clip-rule="nonzero"/></clipPath></defs><g clip-path="url(#5b11fff995)"><path fill="#000000" d="M 844.847656 404.875 C 835.035156 404.253906 825.972656 407.484375 819.015625 413.078125 C 814.171875 417.054688 806.972656 413.453125 806.972656 407.238281 L 806.972656 325.828125 C 806.972656 321.726562 803.617188 318.371094 799.519531 318.371094 L 716.070312 318.371094 C 709.613281 318.371094 706.382812 310.914062 710.605469 305.941406 C 716.441406 299.230469 719.796875 290.40625 719.546875 280.835938 C 719.175781 261.695312 703.777344 245.660156 684.652344 244.417969 C 663.042969 243.050781 645.039062 260.203125 645.039062 281.578125 C 645.039062 290.902344 648.390625 299.351562 653.980469 305.816406 C 658.203125 310.664062 654.847656 318.246094 648.390625 318.246094 L 566.058594 318.246094 C 561.960938 318.246094 558.609375 321.601562 558.609375 325.703125 L 558.609375 407.238281 C 558.609375 413.453125 565.933594 417.054688 570.777344 413.078125 C 577.730469 407.363281 586.921875 404.128906 596.730469 404.75 C 615.359375 405.871094 630.507812 421.15625 631.503906 439.800781 C 632.742188 461.425781 615.855469 479.324219 594.496094 479.324219 C 585.554688 479.324219 577.234375 476.21875 570.902344 470.875 C 566.058594 466.894531 558.730469 470.375 558.730469 476.589844 L 558.730469 559.367188 C 558.730469 563.46875 562.085938 566.824219 566.183594 566.824219 L 648.390625 566.824219 C 654.722656 566.824219 658.203125 559.367188 653.980469 554.519531 C 648.140625 547.683594 644.789062 538.984375 645.164062 529.289062 C 645.78125 510.523438 660.4375 494.863281 679.0625 493.246094 C 701.167969 491.382812 719.546875 508.90625 719.546875 530.65625 C 719.546875 539.980469 716.195312 548.183594 710.605469 554.769531 C 706.507812 559.492188 710.109375 566.949219 716.316406 566.949219 L 799.519531 566.949219 C 803.617188 566.949219 806.972656 563.59375 806.972656 559.492188 L 806.972656 476.964844 C 806.972656 470.75 814.171875 467.144531 819.015625 471.121094 C 825.472656 476.34375 833.546875 479.449219 842.488281 479.449219 C 863.847656 479.449219 881.109375 461.425781 879.617188 439.675781 C 878.375 421.035156 863.347656 406.117188 844.847656 404.875 Z M 844.847656 404.875 " fill-opacity="1" fill-rule="nonzero"/></g></svg>