<svg xmlns="http://www.w3.org/2000/svg" xmlns:xlink="http://www.w3.org/1999/xlink" width="1920" zoomAndPan="magnify" viewBox="0 0 1440 809.999993" height="1080" preserveAspectRatio="xMidYMid meet" version="1.0"><path fill="#000000" d="M 646.058594 309.328125 C 639 302.976562 628.097656 303.550781 621.75 310.605469 L 546.066406 394.632812 C 540.171875 401.183594 540.171875 411.109375 546.066406 417.660156 L 621.75 501.6875 C 625.144531 505.460938 629.835938 507.378906 634.550781 507.378906 C 638.652344 507.378906 642.769531 505.921875 646.058594 502.964844 C 653.128906 496.601562 653.699219 485.726562 647.339844 478.660156 L 582.023438 406.144531 L 647.339844 333.632812 C 653.699219 326.566406 653.128906 315.691406 646.058594 309.328125 Z M 646.058594 309.328125 " fill-opacity="1" fill-rule="nonzero"/><path fill="#000000" d="M 893.03125 394.632812 L 817.351562 310.605469 C 810.996094 303.550781 800.113281 302.976562 793.039062 309.328125 C 785.972656 315.691406 785.402344 326.566406 791.761719 333.632812 L 857.074219 406.144531 L 791.761719 478.660156 C 785.402344 485.726562 785.972656 496.601562 793.039062 502.964844 C 796.328125 505.921875 800.449219 507.378906 804.550781 507.378906 C 809.261719 507.378906 813.953125 505.460938 817.351562 501.6875 L 893.03125 417.660156 C 898.925781 411.109375 898.925781 401.183594 893.03125 394.632812 Z M 893.03125 394.632812 " fill-opacity="1" fill-rule="nonzero"/><path fill="#000000" d="M 758.394531 248.039062 C 749.136719 245.800781 739.835938 251.421875 737.574219 260.652344 L 668.089844 543.441406 C 665.820312 552.671875 671.46875 561.980469 680.707031 564.253906 C 682.085938 564.589844 683.464844 564.746094 684.820312 564.746094 C 692.566406 564.746094 699.597656 559.492188 701.527344 551.640625 L 771.007812 268.851562 C 773.277344 259.621094 767.628906 250.3125 758.394531 248.039062 Z M 758.394531 248.039062 " fill-opacity="1" fill-rule="nonzero"/></svg>