<svg xmlns="http://www.w3.org/2000/svg" xmlns:xlink="http://www.w3.org/1999/xlink" width="1920" zoomAndPan="magnify" viewBox="0 0 1440 809.999993" height="1080" preserveAspectRatio="xMidYMid meet" version="1.0"><defs><clipPath id="fa8f839179"><path d="M 588 243 L 882 243 L 882 537 L 588 537 Z M 588 243 " clip-rule="nonzero"/></clipPath></defs><g clip-path="url(#fa8f839179)"><path fill="#000000" d="M 875.664062 243.179688 C 856.414062 243.179688 834.027344 247.359375 810.613281 255.195312 C 810.59375 255.203125 810.582031 255.195312 810.566406 255.203125 C 810.550781 255.207031 810.546875 255.214844 810.535156 255.21875 C 808.636719 255.855469 806.738281 256.46875 804.832031 257.152344 C 804.644531 257.222656 804.453125 257.304688 804.265625 257.398438 C 799.539062 259.101562 794.894531 260.949219 790.316406 262.875 C 790.292969 262.882812 790.265625 262.898438 790.242188 262.90625 C 761.859375 274.859375 736.652344 290.785156 719.65625 307.78125 L 686.550781 340.890625 L 658.925781 340.890625 C 645.628906 340.890625 633.128906 346.070312 623.71875 355.472656 L 590.554688 388.636719 C 588.757812 390.433594 588.234375 393.148438 589.238281 395.484375 C 590.214844 397.773438 592.472656 399.253906 594.953125 399.253906 C 595 399.253906 595.050781 399.253906 595.101562 399.253906 L 647.9375 397.980469 C 645.40625 411.828125 646.933594 426.21875 652.863281 439.171875 C 634.875 457.636719 621.046875 481.988281 632.316406 493.257812 C 635.136719 496.085938 638.789062 497.332031 642.96875 497.332031 C 655.453125 497.332031 672.613281 486.144531 686.457031 472.640625 C 695.417969 476.726562 705.023438 478.847656 714.714844 478.847656 C 719.023438 478.847656 723.332031 478.40625 727.597656 477.628906 L 726.324219 530.476562 C 726.261719 533.019531 727.753906 535.339844 730.09375 536.339844 C 730.882812 536.675781 731.714844 536.84375 732.542969 536.84375 C 734.160156 536.84375 735.753906 536.210938 736.941406 535.023438 L 770.105469 501.859375 C 779.507812 492.449219 784.6875 479.949219 784.6875 466.652344 L 784.6875 439.011719 L 817.546875 406.113281 C 834.664062 389.046875 850.636719 363.683594 862.578125 335.101562 C 862.578125 335.09375 862.585938 335.09375 862.585938 335.089844 C 864.582031 330.3125 866.488281 325.472656 868.242188 320.542969 C 868.898438 318.707031 869.480469 316.890625 870.089844 315.070312 C 870.117188 315.019531 870.152344 314.976562 870.179688 314.925781 C 870.210938 314.851562 870.191406 314.769531 870.222656 314.691406 C 878.042969 291.183594 882.15625 268.703125 882.054688 249.367188 C 882.023438 245.941406 879.082031 243.179688 875.664062 243.179688 Z M 651.40625 385.453125 L 610.335938 386.441406 L 632.507812 364.265625 C 639.566406 357.214844 648.945312 353.328125 658.917969 353.328125 L 674.105469 353.328125 L 668.296875 359.136719 C 660.660156 366.785156 655.019531 375.820312 651.40625 385.453125 Z M 674.875 421.027344 C 670.808594 423.617188 666.671875 426.660156 662.574219 430.128906 C 658.730469 419.664062 658.171875 408.277344 660.710938 397.394531 C 664.378906 406.332031 670.070312 414.78125 674.875 421.027344 Z M 678.957031 462.617188 C 659.367188 482.210938 643.171875 486.523438 641.109375 484.464844 C 639.054688 482.40625 643.371094 466.199219 662.960938 446.617188 C 671.613281 437.964844 680.878906 431.09375 689.042969 427.269531 C 693.855469 425.019531 697.152344 424.410156 699.019531 424.410156 C 700.019531 424.410156 700.609375 424.582031 700.800781 424.777344 C 701.351562 425.324219 701.773438 429.128906 698.308594 436.535156 C 694.476562 444.707031 687.601562 453.96875 678.957031 462.617188 Z M 695.441406 462.996094 C 698.917969 458.890625 701.972656 454.746094 704.566406 450.664062 C 710.914062 455.535156 719.429688 461.175781 728.4375 464.800781 C 717.488281 467.398438 705.996094 466.859375 695.441406 462.996094 Z M 772.246094 466.648438 C 772.246094 476.621094 768.359375 486 761.304688 493.058594 L 739.136719 515.234375 L 740.128906 474.128906 C 749.777344 470.515625 758.824219 464.894531 766.472656 457.246094 L 772.25 451.460938 L 772.25 466.648438 Z M 808.75 397.3125 L 757.671875 448.445312 C 755.421875 450.695312 753.023438 452.730469 750.515625 454.570312 C 750.503906 454.578125 750.484375 454.578125 750.472656 454.589844 C 743.046875 458.878906 727.292969 452.777344 710.523438 439.488281 C 715.925781 426.492188 713.132812 419.515625 709.589844 415.976562 C 706.058594 412.429688 699.078125 409.625 686.058594 415.054688 C 673.515625 399.285156 667.234375 384.125 670.1875 376.207031 C 672.226562 373.296875 674.515625 370.511719 677.097656 367.929688 L 693.515625 351.511719 C 693.519531 351.503906 693.519531 351.503906 693.527344 351.5 L 728.453125 316.574219 C 742.761719 302.265625 763.46875 288.707031 787.074219 277.882812 C 789.570312 290.078125 797.511719 303.632812 809.675781 315.785156 C 821.839844 327.929688 835.402344 335.839844 847.589844 338.316406 C 836.769531 362.101562 823.164062 382.9375 808.75 397.3125 Z M 852.609375 326.59375 C 842.492188 325.425781 829.601562 318.097656 818.46875 306.984375 C 807.332031 295.867188 799.980469 282.9375 798.796875 272.84375 C 801.820312 271.625 804.867188 270.4375 807.953125 269.316406 C 807.945312 269.40625 807.972656 269.484375 807.964844 269.566406 C 807.660156 275.839844 812.867188 288.136719 825.066406 300.335938 C 837.335938 312.605469 849.691406 317.773438 855.992188 317.433594 C 856.03125 317.433594 856.074219 317.4375 856.109375 317.4375 C 854.996094 320.523438 853.824219 323.570312 852.609375 326.59375 Z M 860.089844 305.25 C 858.5 305.058594 856.894531 304.921875 855.277344 305.015625 C 853.226562 305.273438 844.246094 301.917969 833.828125 291.5 C 823.523438 281.203125 820.378906 272.246094 820.390625 270.246094 C 820.488281 268.578125 820.367188 266.921875 820.160156 265.277344 C 837.605469 259.878906 854.617188 256.511719 869.480469 255.78125 C 868.804688 270.628906 865.476562 287.71875 860.089844 305.25 Z M 860.089844 305.25 " fill-opacity="1" fill-rule="nonzero"/></g><path fill="#000000" d="M 762.269531 321.792969 C 750.996094 321.792969 740.398438 326.183594 732.429688 334.148438 C 724.457031 342.117188 720.074219 352.710938 720.074219 363.988281 C 720.074219 375.261719 724.457031 385.859375 732.429688 393.824219 C 740.398438 401.796875 750.996094 406.179688 762.269531 406.179688 C 773.542969 406.179688 784.140625 401.792969 792.105469 393.824219 C 800.078125 385.851562 804.464844 375.261719 804.464844 363.988281 C 804.464844 352.710938 800.078125 342.117188 792.105469 334.148438 C 784.140625 326.183594 773.542969 321.792969 762.269531 321.792969 Z M 783.3125 385.039062 C 777.699219 390.660156 770.222656 393.75 762.269531 393.75 C 754.316406 393.75 746.847656 390.652344 741.226562 385.039062 C 735.601562 379.414062 732.511719 371.945312 732.511719 363.992188 C 732.511719 356.046875 735.601562 348.570312 741.226562 342.949219 C 746.839844 337.328125 754.316406 334.234375 762.269531 334.234375 C 770.222656 334.234375 777.691406 337.332031 783.3125 342.949219 C 788.933594 348.570312 792.027344 356.039062 792.027344 363.992188 C 792.027344 371.941406 788.933594 379.414062 783.3125 385.039062 Z M 783.3125 385.039062 " fill-opacity="1" fill-rule="nonzero"/><path fill="#000000" d="M 569.1875 441.785156 L 595.183594 415.789062 C 597.613281 413.359375 597.613281 409.429688 595.183594 406.996094 C 592.75 404.566406 588.820312 404.566406 586.390625 406.996094 L 560.394531 432.992188 C 557.960938 435.421875 557.960938 439.351562 560.394531 441.785156 C 561.605469 442.996094 563.199219 443.605469 564.789062 443.605469 C 566.382812 443.605469 567.976562 442.996094 569.1875 441.785156 Z M 569.1875 441.785156 " fill-opacity="1" fill-rule="nonzero"/><path fill="#000000" d="M 627.089844 498.308594 C 624.660156 495.875 620.730469 495.875 618.296875 498.308594 L 578.066406 538.53125 C 575.636719 540.960938 575.636719 544.890625 578.066406 547.324219 C 579.28125 548.535156 580.871094 549.144531 582.464844 549.144531 C 584.058594 549.144531 585.648438 548.535156 586.863281 547.324219 L 627.089844 507.101562 C 629.515625 504.675781 629.515625 500.738281 627.089844 498.308594 Z M 627.089844 498.308594 " fill-opacity="1" fill-rule="nonzero"/><path fill="#000000" d="M 608.902344 452.257812 C 606.46875 449.824219 602.539062 449.824219 600.109375 452.257812 L 566.058594 486.304688 C 563.628906 488.734375 563.628906 492.667969 566.058594 495.097656 C 567.273438 496.3125 568.863281 496.921875 570.457031 496.921875 C 572.046875 496.921875 573.640625 496.3125 574.851562 495.097656 L 608.902344 461.050781 C 611.332031 458.625 611.332031 454.6875 608.902344 452.257812 Z M 608.902344 452.257812 " fill-opacity="1" fill-rule="nonzero"/><path fill="#000000" d="M 709.609375 530.214844 L 683.613281 556.210938 C 681.183594 558.640625 681.183594 562.570312 683.613281 565.003906 C 684.828125 566.214844 686.417969 566.824219 688.011719 566.824219 C 689.601562 566.824219 691.195312 566.214844 692.40625 565.003906 L 718.402344 539.007812 C 720.832031 536.578125 720.832031 532.648438 718.402344 530.214844 C 715.96875 527.785156 712.039062 527.785156 709.609375 530.214844 Z M 709.609375 530.214844 " fill-opacity="1" fill-rule="nonzero"/><path fill="#000000" d="M 664.347656 516.496094 L 630.300781 550.546875 C 627.867188 552.976562 627.867188 556.90625 630.300781 559.339844 C 631.511719 560.550781 633.105469 561.160156 634.695312 561.160156 C 636.289062 561.160156 637.878906 560.550781 639.09375 559.339844 L 673.140625 525.289062 C 675.574219 522.859375 675.574219 518.929688 673.140625 516.496094 C 670.710938 514.066406 666.78125 514.066406 664.347656 516.496094 Z M 664.347656 516.496094 " fill-opacity="1" fill-rule="nonzero"/></svg>